<?xml version="1.0" standalone="no"?><!DOCTYPE svg PUBLIC "-//W3C//DTD SVG 1.1//EN" "http://www.w3.org/Graphics/SVG/1.1/DTD/svg11.dtd"><svg t="1692241329599" class="icon" viewBox="0 0 1025 1024" version="1.1" xmlns="http://www.w3.org/2000/svg" p-id="7898" xmlns:xlink="http://www.w3.org/1999/xlink" width="1000.9765625" height="1000"><path d="M804.6 292.4C804.5 130.9 673.5 0 512 0 350.5 0 219.5 130.9 219.4 292.4h585.2z m182.8 292.4H877.7V416.7l92.9-92.9c14.8-13.8 15.6-37.1 1.8-51.9-13.8-14.8-37.1-15.6-51.9-1.8l-1.8 1.8-73.1 73.1H187.2l-73.1-73.1c-14.3-14.3-37.6-14.3-51.9 0-14.3 14.3-14.3 37.6 0 51.9l84.1 92.9v168.1H36.6c-20.2 0-36.6 16.4-36.6 36.6 0 20.2 16.4 36.6 36.6 36.6h109.7v36.6c0.4 56.5 15.5 111.9 43.9 160.8L84.1 960.7c-14.3 14.3-14.3 37.6 0 51.9s37.6 14.3 51.9 0l98-97.3c61.7 68.4 149.3 107.6 241.4 108.2h4.4V390.4h73.1v633.1c90.8-1.6 176.9-40.8 237.7-108.3l98 98c14.3 14.3 37.6 14.3 51.9 0 14.3-14.3 14.3-37.6 0-51.9l-103-103c27.8-50.2 41.7-107.1 40.2-164.5V658h109.7c20.2 0.9 37.3-14.7 38.2-34.9 0.9-20.2-14.7-37.3-34.9-38.2-1.1-0.1-2.2-0.1-3.3-0.1z" fill="#7773EE" p-id="7899"></path></svg>